<?xml version="1.0" encoding="UTF-8"?>
<svg id="content" xmlns="http://www.w3.org/2000/svg" viewBox="0 0 387.57 148.82">
  <defs>
    <style>
      .cls-1 {
        fill: #606060;
      }

      .cls-1, .cls-2 {
        stroke-width: 0px;
      }

      .cls-2 {
        fill: #4a53a0;
      }
    </style>
  </defs>
  <g>
    <path class="cls-2" d="m85.41,70.23c-.17.66-.34,1.34-.49,2.03-.16.69-.29,1.37-.39,2.03h-1.35c-.1-.66-.23-1.33-.39-2-.16-.68-.3-1.34-.44-2l-6.56-25.91h-8.17l9.78,33.71c.17.62.51,1.14,1.01,1.56.5.42,1.1.62,1.79.62h7.28c.69,0,1.29-.21,1.8-.62.5-.42.84-.94,1.01-1.56l9.78-33.71h-8.17l-6.5,25.86Z"/>
    <path class="cls-2" d="m121.21,54.75c-1.49-.57-3.31-.86-5.46-.86-1.28,0-2.74.06-4.37.18-1.63.12-3.25.27-4.86.44-1.61.17-3.04.38-4.29.62l.68,5.1c2.08-.14,4.11-.25,6.09-.34,1.98-.09,3.64-.13,4.99-.13,1.56,0,2.63.27,3.2.81.57.54.88,1.43.91,2.68v1.2h-9.37c-2.43,0-4.34.57-5.72,1.72-1.39,1.14-2.08,2.74-2.08,4.79v2.65c0,1.6.36,2.93,1.09,4.01.73,1.08,1.73,1.88,2.99,2.42,1.27.54,2.66.81,4.19.81s3.02-.25,4.27-.75c1.25-.5,2.34-1.13,3.28-1.87.85-.68,1.56-1.37,2.16-2.07l.81,4.13h6.09v-17.01c0-2.36-.39-4.22-1.17-5.59-.78-1.37-1.92-2.34-3.41-2.91Zm-3.54,18.34c-1.04.69-2.09,1.23-3.15,1.61-1.06.38-2.04.57-2.94.57-1.08,0-1.86-.23-2.34-.7-.49-.47-.73-1.14-.73-2v-1.25c0-.76.2-1.37.6-1.82.4-.45,1.07-.69,2-.73h6.97v4.02c-.14.1-.27.2-.42.3Z"/>
    <path class="cls-2" d="m142.59,74.65c-1.01,0-1.77-.22-2.29-.65-.52-.43-.78-1.08-.78-1.95l.05-28.2h-7.65v30.12c0,2.19.67,3.88,2,5.07,1.33,1.2,3.16,1.79,5.49,1.79.55,0,1.23-.03,2.03-.1.8-.07,1.58-.18,2.34-.34.76-.16,1.35-.34,1.77-.55l-.88-5.2h-2.08Z"/>
    <path class="cls-2" d="m160.7,70.64c-.21.76-.41,1.53-.6,2.32-.19.78-.39,1.55-.6,2.32h-.68c-.17-.73-.35-1.49-.52-2.29-.17-.8-.36-1.58-.57-2.34l-4.73-16.08h-8.12l8.48,23.88c.17.55.49,1,.94,1.33.45.33.97.49,1.56.49h6.66c.59,0,1.1-.16,1.53-.49.43-.33.75-.77.96-1.33l8.48-23.88h-8.12l-4.68,16.08Z"/>
    <polygon class="cls-2" points="182.76 44.37 171.93 44.37 171.93 50.61 182.76 50.61 182.76 80.27 190.66 80.27 190.66 50.61 201.49 50.61 201.49 44.37 190.66 44.37 182.76 44.37"/>
    <path class="cls-2" d="m213.4,55.14c-1.72.78-3.42,1.89-5.11,3.34l-.72-3.91h-5.98v25.7h7.65v-17.45c1.67-.59,3.07-1.03,4.21-1.33,1.32-.35,2.58-.52,3.8-.52h2.13l.73-7.08h-1.35c-1.73,0-3.52.42-5.36,1.25Z"/>
    <path class="cls-2" d="m243.32,55.22c-1.94-.88-4.53-1.33-7.75-1.33s-5.76.44-7.7,1.33c-1.94.88-3.35,2.32-4.21,4.29-.87,1.98-1.3,4.63-1.3,7.96s.43,5.88,1.3,7.86c.87,1.98,2.27,3.4,4.21,4.27,1.94.87,4.51,1.3,7.7,1.3s5.81-.43,7.75-1.3c1.94-.87,3.34-2.29,4.19-4.27.85-1.98,1.27-4.6,1.27-7.86s-.43-5.98-1.27-7.96c-.85-1.98-2.25-3.41-4.19-4.29Zm-2.99,17.09c-.3,1.14-.82,1.93-1.59,2.37-.76.43-1.82.65-3.17.65s-2.36-.22-3.12-.65c-.76-.43-1.3-1.22-1.61-2.37s-.47-2.76-.47-4.84.16-3.8.47-4.94.85-1.94,1.61-2.39c.76-.45,1.8-.68,3.12-.68s2.41.23,3.17.68c.76.45,1.29,1.25,1.59,2.39.29,1.14.44,2.79.44,4.94s-.15,3.69-.44,4.84Z"/>
    <path class="cls-2" d="m271.93,53.89c-1.87,0-3.77.42-5.7,1.25-1.82.79-3.59,1.9-5.33,3.33l-.68-3.9h-6.14v25.7h7.65v-17.65c1.39-.67,2.59-1.2,3.59-1.57,1.18-.43,2.32-.65,3.43-.65,1.01,0,1.72.22,2.13.65.42.43.62,1.22.62,2.37v16.86h7.7v-19.25c0-4.75-2.43-7.13-7.28-7.13Z"/>
    <rect class="cls-2" x="285.56" y="54.57" width="7.6" height="25.7"/>
    <rect class="cls-2" x="285.41" y="43.22" width="7.91" height="7.39" rx="2.29" ry="2.29"/>
    <path class="cls-2" d="m320.84,74.23c-.97.14-1.96.23-2.97.29s-1.94.1-2.81.13c-.87.03-1.58.05-2.13.05-1.56,0-2.79-.21-3.69-.62-.9-.42-1.55-1.16-1.95-2.24-.4-1.07-.6-2.57-.6-4.47s.2-3.38.6-4.42c.4-1.04,1.05-1.77,1.95-2.19.9-.42,2.13-.62,3.69-.62,1.01,0,2.14,0,3.41.03,1.27.02,2.59.06,3.98.13l.83-4.84c-.94-.42-1.97-.74-3.1-.96-1.13-.23-2.25-.38-3.36-.47-1.11-.09-2.13-.13-3.07-.13-3.16,0-5.69.43-7.6,1.3-1.91.87-3.29,2.29-4.14,4.27-.85,1.98-1.27,4.61-1.27,7.91s.42,5.93,1.25,7.91c.83,1.98,2.2,3.41,4.11,4.29,1.91.88,4.44,1.33,7.6,1.33,1.73,0,3.49-.14,5.25-.42,1.77-.28,3.35-.73,4.73-1.35l-.73-4.89Z"/>
  </g>
  <g>
    <path class="cls-1" d="m73.45,98.23c1.36,0,2.43.12,3.23.37.8.24,1.37.67,1.73,1.29s.53,1.48.53,2.6-.22,2.06-.65,2.67-1.14.97-2.12,1.06v.09c1.21.11,2.06.54,2.55,1.28.49.74.73,1.77.73,3.07,0,1.12-.18,1.99-.53,2.6s-.92,1.04-1.69,1.29-1.79.37-3.05.37c-.96,0-1.79,0-2.47-.01-.69,0-1.32-.03-1.9-.06s-1.19-.07-1.82-.12l.33-1.82c.35.02,1.02.03,2.01.05.99.02,2.15.02,3.47.02.82,0,1.46-.07,1.94-.21.47-.14.81-.41,1.02-.8s.31-.97.31-1.73c0-.82-.11-1.45-.32-1.88-.21-.43-.56-.74-1.05-.92-.49-.18-1.17-.28-2.03-.3h-5.37v-1.73h5.34c.76-.02,1.36-.09,1.8-.24.44-.14.76-.41.95-.79.19-.39.28-.93.28-1.62s-.1-1.25-.31-1.63c-.21-.38-.55-.63-1.04-.77-.49-.13-1.15-.2-1.99-.2h-2.13c-.63,0-1.18,0-1.65.01-.47,0-.88.03-1.23.06l-.33-1.82c.57-.06,1.11-.11,1.62-.13.51-.02,1.07-.04,1.68-.05.61,0,1.33-.01,2.16-.01Zm-3.14.19v16.31h-2.32v-16.31h2.32Z"/>
    <path class="cls-1" d="m90.14,98.21c1.29,0,2.34.14,3.13.41.8.28,1.38.76,1.74,1.44s.54,1.64.54,2.87c0,.87-.1,1.59-.31,2.17-.2.58-.52,1.04-.96,1.37s-1.02.54-1.76.64v.12c.27.06.54.19.8.38.27.19.52.45.76.77.24.32.41.73.52,1.22l1.54,5.13h-2.5l-1.42-5.08c-.19-.6-.45-1.02-.78-1.28s-.76-.38-1.3-.38c-.99,0-1.84,0-2.55-.01-.71,0-1.3-.02-1.78-.04-.48-.02-.87-.02-1.17-.02l.07-1.89h5.39c.77-.02,1.38-.11,1.82-.27.44-.17.76-.46.96-.89s.3-1.02.3-1.8-.1-1.37-.3-1.78c-.2-.42-.52-.71-.96-.87-.44-.17-1.05-.25-1.82-.25-1.32,0-2.47,0-3.43.02-.96.02-1.61.02-1.94.02l-.33-1.8c.6-.06,1.17-.11,1.7-.14.54-.03,1.12-.05,1.76-.06.64,0,1.4-.01,2.28-.01Zm-3.4.21v16.31h-2.34v-16.31h2.34Z"/>
    <path class="cls-1" d="m107.42,98.42c.21,0,.39.06.54.18.16.12.27.27.33.46l5.15,15.67h-2.46l-4.07-13.12c-.06-.24-.13-.47-.19-.71-.06-.24-.13-.46-.19-.66h-.66c-.06.21-.13.43-.19.66-.06.24-.13.47-.21.71l-4.07,13.12h-2.43l5.15-15.67c.06-.19.17-.34.33-.46.16-.12.34-.18.54-.18h2.41Zm2.93,9.38v1.96h-8.32v-1.96h8.32Z"/>
    <path class="cls-1" d="m127.39,98.42l-5.51,10.85h-2.15l-5.53-10.85h2.5l3.31,6.71c.14.3.27.61.38.93.11.32.22.64.33.96h.17c.11-.31.22-.63.34-.96.12-.32.24-.63.37-.91l3.31-6.74h2.48Zm-5.41,9.24v7.07h-2.36v-7.07h2.36Z"/>
    <path class="cls-1" d="m139.9,98.42v16.31h-2.36v-16.31h2.36Z"/>
    <path class="cls-1" d="m158.29,98.42v15.39c0,.61-.29.92-.88.92h-2.03c-.27,0-.48-.06-.63-.19-.15-.13-.28-.31-.39-.54l-5.34-11.01c-.14-.32-.31-.67-.5-1.08-.19-.4-.33-.78-.42-1.12h-.35c.03.36.05.73.07,1.1s.02.74.02,1.12v11.72h-2.32v-15.39c0-.61.3-.92.9-.92h1.96c.27,0,.48.06.64.19.16.13.29.31.4.54l5.15,10.73c.17.33.36.71.56,1.13.2.43.39.84.58,1.25h.38c-.03-.43-.06-.85-.07-1.26s-.02-.83-.02-1.24v-11.35h2.29Z"/>
    <path class="cls-1" d="m175.21,98.42v2.03h-12.74v-2.03h12.74Zm-5.2,0v16.31h-2.36v-16.31h2.36Z"/>
    <path class="cls-1" d="m182.46,98.4h2.41c.82,0,1.63.01,2.42.04s1.56.06,2.28.11l-.09,1.82h-6.5c-.47,0-.82.12-1.04.35s-.33.61-.33,1.13v9.45c0,.52.11.9.33,1.15.22.24.57.37,1.04.37h6.5l.09,1.8c-.73.05-1.49.08-2.28.09s-1.6.03-2.42.04-1.62.01-2.41.01c-.98,0-1.75-.26-2.33-.79-.58-.53-.87-1.23-.89-2.12v-10.54c.02-.9.31-1.61.89-2.13s1.35-.78,2.33-.78Zm-2.79,6.83h8.89v1.82h-8.89v-1.82Z"/>
    <path class="cls-1" d="m200.1,98.21c1.29,0,2.34.14,3.13.41.79.28,1.37.76,1.74,1.44s.54,1.64.54,2.87c0,.87-.1,1.59-.31,2.17-.21.58-.52,1.04-.96,1.37s-1.02.54-1.76.64v.12c.27.06.54.19.8.38.27.19.52.45.76.77.24.32.41.73.52,1.22l1.54,5.13h-2.51l-1.42-5.08c-.19-.6-.45-1.02-.78-1.28-.33-.25-.77-.38-1.3-.38-.99,0-1.84,0-2.55-.01s-1.3-.02-1.78-.04c-.48-.02-.87-.02-1.17-.02l.07-1.89h5.39c.77-.02,1.38-.11,1.82-.27.44-.17.76-.46.96-.89s.29-1.02.29-1.8-.1-1.37-.29-1.78c-.2-.42-.52-.71-.96-.87s-1.05-.25-1.82-.25c-1.32,0-2.47,0-3.43.02-.96.02-1.61.02-1.94.02l-.33-1.8c.6-.06,1.17-.11,1.7-.14.54-.03,1.12-.05,1.76-.06.64,0,1.4-.01,2.28-.01Zm-3.4.21v16.31h-2.34v-16.31h2.34Z"/>
    <path class="cls-1" d="m223.5,98.42v15.39c0,.61-.29.92-.87.92h-2.03c-.27,0-.48-.06-.63-.19-.15-.13-.28-.31-.39-.54l-5.34-11.01c-.14-.32-.31-.67-.5-1.08s-.33-.78-.43-1.12h-.35c.03.36.06.73.07,1.1s.02.74.02,1.12v11.72h-2.32v-15.39c0-.61.3-.92.9-.92h1.96c.27,0,.48.06.64.19.16.13.29.31.4.54l5.15,10.73c.17.33.36.71.56,1.13.2.43.39.84.58,1.25h.38c-.03-.43-.05-.85-.07-1.26-.02-.42-.02-.83-.02-1.24v-11.35h2.29Z"/>
    <path class="cls-1" d="m235.76,98.42c.21,0,.39.06.54.18s.27.27.33.46l5.15,15.67h-2.46l-4.07-13.12c-.06-.24-.13-.47-.19-.71-.06-.24-.13-.46-.19-.66h-.66c-.06.21-.13.43-.19.66-.06.24-.13.47-.21.71l-4.07,13.12h-2.43l5.15-15.67c.06-.19.17-.34.33-.46.16-.12.34-.18.54-.18h2.41Zm2.93,9.38v1.96h-8.32v-1.96h8.32Z"/>
    <path class="cls-1" d="m255.53,98.42v2.03h-12.74v-2.03h12.74Zm-5.2,0v16.31h-2.36v-16.31h2.36Z"/>
    <path class="cls-1" d="m262.07,98.42v16.31h-2.36v-16.31h2.36Z"/>
    <path class="cls-1" d="m273.65,98.12c1.2,0,2.22.14,3.06.43s1.52.75,2.02,1.39c.5.65.87,1.51,1.1,2.6s.34,2.43.34,4.04-.11,2.93-.34,4.03-.59,1.97-1.1,2.61c-.5.65-1.18,1.11-2.02,1.39s-1.86.43-3.06.43-2.22-.14-3.06-.43-1.52-.75-2.03-1.39c-.51-.65-.89-1.52-1.12-2.61s-.35-2.44-.35-4.03.12-2.95.35-4.04.61-1.95,1.12-2.6c.51-.65,1.19-1.11,2.03-1.39s1.86-.43,3.06-.43Zm0,2.06c-1.03,0-1.84.2-2.43.59-.6.39-1.02,1.05-1.26,1.97-.25.92-.37,2.2-.37,3.84s.12,2.9.37,3.83c.24.93.67,1.59,1.26,1.99.6.39,1.41.59,2.43.59s1.83-.2,2.42-.59c.59-.39,1.01-1.06,1.26-1.99s.38-2.21.38-3.83-.13-2.92-.38-3.84-.67-1.58-1.26-1.97c-.59-.39-1.4-.59-2.42-.59Z"/>
    <path class="cls-1" d="m298,98.42v15.39c0,.61-.29.92-.87.92h-2.03c-.27,0-.48-.06-.63-.19-.15-.13-.28-.31-.39-.54l-5.34-11.01c-.14-.32-.31-.67-.5-1.08s-.33-.78-.43-1.12h-.35c.03.36.06.73.07,1.1s.02.74.02,1.12v11.72h-2.32v-15.39c0-.61.3-.92.9-.92h1.96c.27,0,.48.06.64.19.16.13.29.31.4.54l5.15,10.73c.17.33.36.71.56,1.13.2.43.39.84.58,1.25h.38c-.03-.43-.05-.85-.07-1.26-.02-.42-.02-.83-.02-1.24v-11.35h2.29Z"/>
    <path class="cls-1" d="m310.27,98.42c.21,0,.39.06.54.18s.27.27.33.46l5.15,15.67h-2.46l-4.07-13.12c-.06-.24-.13-.47-.19-.71-.06-.24-.13-.46-.19-.66h-.66c-.06.21-.13.43-.19.66-.06.24-.13.47-.21.71l-4.07,13.12h-2.43l5.15-15.67c.06-.19.17-.34.33-.46.16-.12.34-.18.54-.18h2.41Zm2.93,9.38v1.96h-8.32v-1.96h8.32Z"/>
    <path class="cls-1" d="m322.42,98.42v12.86c0,.5.13.88.38,1.12.25.24.64.37,1.16.37h5.84l.12,1.82c-1.06.08-2.13.13-3.21.14-1.09.02-2.17.02-3.26.02-1.2,0-2.06-.3-2.58-.89-.52-.59-.78-1.34-.78-2.23v-13.21h2.34Z"/>
  </g>
</svg>