<?xml version="1.0" encoding="UTF-8"?>
<svg id="content" xmlns="http://www.w3.org/2000/svg" xmlns:xlink="http://www.w3.org/1999/xlink" viewBox="0 0 193.42 114.4">
  <defs>
    <style>
      .cls-1 {
        fill: none;
      }

      .cls-1, .cls-2 {
        stroke-width: 0px;
      }

      .cls-2 {
        fill: #fff;
      }

      .cls-3 {
        clip-path: url(#clippath);
      }
    </style>
    <clipPath id="clippath">
      <path class="cls-1" d="m1573.83,601.99l74.26-154.48h-85.72l-57.33,128.81h-2.68l-57.33-128.81h-114.88l-48.59,215.9c-1.23,5.81-2.45,11.77-3.67,17.88-1.22,6.12-2.29,12.08-3.21,17.88h-11c-.92-5.8-1.99-11.76-3.21-17.88-1.22-6.11-2.45-12.07-3.67-17.88l-48.59-215.9h-88.47l81.59,292.91c1.53,7.03,4.96,12.68,10.31,16.96,5.34,4.28,11.84,6.42,19.48,6.42h76.55c7.34,0,13.67-2.13,19.02-6.42,5.34-4.28,8.94-9.93,10.77-16.96l59.45-214.64,36.63,76.2-80.68,161.81h86.18l63.71-137.98h1.84l63.71,137.98h86.18l-80.68-161.81Z"/>
    </clipPath>
  </defs>
  <g class="cls-3">
    <image width="750" height="500" transform="translate(51.98 -192.19) scale(2.7)" xlink:href="C:\AITEMP\AI_27_8\Adobe\AISVG\15\diseño-grilla-11\diseño-grilla-111.png"/>
  </g>
  <path class="cls-2" d="m164.24,55.87L191.1,0h-31l-20.74,46.59h-.97L117.65,0h-41.55l-17.57,78.09c-.44,2.1-.89,4.26-1.33,6.47-.44,2.21-.83,4.37-1.16,6.47h-3.98c-.33-2.1-.72-4.25-1.16-6.47-.44-2.21-.89-4.37-1.33-6.47L32,0H0l29.51,105.94c.55,2.54,1.79,4.59,3.73,6.13,1.93,1.55,4.28,2.32,7.05,2.32h27.69c2.65,0,4.95-.77,6.88-2.32,1.93-1.55,3.23-3.59,3.9-6.13l21.5-77.63,13.25,27.56-29.18,58.53h31.17l23.04-49.9h.67l23.04,49.9h31.17l-29.18-58.53Z"/>
</svg>