<?xml version="1.0" encoding="UTF-8"?>
<svg id="content" xmlns="http://www.w3.org/2000/svg" viewBox="0 0 193.42 114.4">
  <defs>
    <style>
      .cls-1 {
        fill: #4a53a0;
        stroke-width: 0px;
      }
    </style>
  </defs>
  <path class="cls-1" d="m164.24,55.87L191.1,0h-31l-20.74,46.59h-.97L117.65,0h-41.55l-17.57,78.09c-.44,2.1-.89,4.26-1.33,6.47-.44,2.21-.83,4.37-1.16,6.47h-3.98c-.33-2.1-.72-4.25-1.16-6.47-.44-2.21-.89-4.37-1.33-6.47L32,0H0l29.51,105.94c.55,2.54,1.79,4.59,3.73,6.13,1.93,1.55,4.28,2.32,7.05,2.32h27.69c2.65,0,4.95-.77,6.88-2.32,1.93-1.55,3.23-3.59,3.9-6.13l21.5-77.63,13.25,27.56-29.18,58.53h31.17l23.04-49.9h.67l23.04,49.9h31.17l-29.18-58.53Z"/>
</svg>