<?xml version="1.0" encoding="UTF-8"?>
<svg id="content" xmlns="http://www.w3.org/2000/svg" xmlns:xlink="http://www.w3.org/1999/xlink" viewBox="0 0 102.34 58.9">
  <defs>
    <style>
      .cls-1 {
        fill: url(#Nueva_muestra_de_degradado_1-4);
      }

      .cls-1, .cls-2, .cls-3, .cls-4, .cls-5 {
        stroke-width: 0px;
      }

      .cls-2 {
        fill: url(#Nueva_muestra_de_degradado_1-2);
      }

      .cls-3 {
        fill: url(#Nueva_muestra_de_degradado_1-3);
      }

      .cls-4 {
        fill: url(#Nueva_muestra_de_degradado_1-5);
      }

      .cls-5 {
        fill: url(#Nueva_muestra_de_degradado_1);
      }
    </style>
    <linearGradient id="Nueva_muestra_de_degradado_1" data-name="Nueva muestra de degradado 1" x1="44.74" y1="36.81" x2="57.6" y2="36.81" gradientUnits="userSpaceOnUse">
      <stop offset="0" stop-color="#3a006a"/>
      <stop offset=".29" stop-color="#402381"/>
      <stop offset=".56" stop-color="#453d92"/>
      <stop offset=".81" stop-color="#484d9c"/>
      <stop offset="1" stop-color="#4a53a0"/>
    </linearGradient>
    <linearGradient id="Nueva_muestra_de_degradado_1-2" data-name="Nueva muestra de degradado 1" x1="65.6" y1="36.82" x2="78.38" y2="36.82" xlink:href="#Nueva_muestra_de_degradado_1"/>
    <linearGradient id="Nueva_muestra_de_degradado_1-3" data-name="Nueva muestra de degradado 1" x1="24.01" y1="36.83" x2="36.81" y2="36.83" xlink:href="#Nueva_muestra_de_degradado_1"/>
    <linearGradient id="Nueva_muestra_de_degradado_1-4" data-name="Nueva muestra de degradado 1" x1="20.66" y1="14.91" x2="45.1" y2="14.91" xlink:href="#Nueva_muestra_de_degradado_1"/>
    <linearGradient id="Nueva_muestra_de_degradado_1-5" data-name="Nueva muestra de degradado 1" x1="0" y1="29.45" x2="102.34" y2="29.45" xlink:href="#Nueva_muestra_de_degradado_1"/>
  </defs>
  <path class="cls-5" d="m57.6,36.74c0,3.64-2.79,6.49-6.32,6.49-3.7,0-6.55-2.87-6.54-6.57.02-3.34,3.02-6.26,6.45-6.27,3.5,0,6.41,2.89,6.41,6.35Zm-3.27.16c0-1.92-1.55-3.21-3.12-3.32-1.68-.12-3.23,1.64-3.18,3.42.04,1.54,1.59,3.05,3.13,3.03,1.69-.02,3.21-1.52,3.17-3.13Z"/>
  <path class="cls-2" d="m78.38,36.74c.08,3.58-2.73,6.33-6.01,6.46-3.84.14-6.84-2.65-6.77-6.38.08-3.92,2.92-6.32,6.28-6.39,4.09-.09,6.58,3.31,6.49,6.31Zm-6.42,3.22c1.73.04,3.11-1.28,3.15-2.98.04-1.79-1.43-3.31-3.23-3.34-1.53-.02-3.06,1.56-3.06,3.17,0,1.68,1.43,3.12,3.14,3.16Z"/>
  <path class="cls-3" d="m30.34,43.24c-3.55-.03-6.4-3.04-6.33-6.71.06-3.24,3.15-6.16,6.44-6.1,3.58.07,6.38,2.93,6.36,6.5-.02,3.44-2.98,6.33-6.47,6.31Zm-.08-3.29c1.85.02,3.25-1.29,3.27-3.06.02-1.72-1.36-3.22-2.96-3.23-1.87-.01-3.3,1.39-3.31,3.24,0,1.66,1.35,3.04,3.01,3.05Z"/>
  <path class="cls-1" d="m37.19,7.38c2.66-.06,5.14.66,7.54,1.73.4.18.45.41.26.77-.32.58-.63,1.16-.92,1.75-.25.51-.56.53-1.07.3-5.47-2.48-11.48-1.3-15.66,3.1-1.79,1.89-2.94,4.15-3.4,6.72-.1.57-.31.81-.94.62-.43-.13-.92-.07-1.39-.11-.84-.06-1.07-.35-.89-1.18.82-3.76,2.62-6.97,5.51-9.51,3.12-2.74,6.84-4.05,10.97-4.19Z"/>
  <path class="cls-4" d="m12.94,58.9h73.81c2.79-.49,5.39-1.59,7.69-3.38,6.05-4.69,8.76-10.88,7.66-18.55-.67-4.67-2.98-8.47-6.5-11.56-3.02-2.65-6.59-4.06-10.54-4.56-.53-.07-.66-.27-.78-.73-1.58-6.31-5.44-10.7-11.55-12.78-5.47-1.86-10.76-1.02-15.59,2.25-.59.4-.96.4-1.35-.18-.14-.2-.31-.39-.47-.58C49.23,1.74,41.46-1.25,32.32.48c-8.34,1.58-14.34,6.58-17.73,14.46-1.64,3.82-2.14,7.84-1.63,11.97.06.52-.12.69-.56.78-1.27.25-2.46.75-3.6,1.35C2.42,32.39-1.04,39.12.28,46.3c1.17,6.35,6.44,11.35,12.66,12.6Zm-.77-27.76c1.2-.4,2.44-.6,3.71-.61,1.12,0,1.1,0,.89-1.07-.23-1.2-.5-2.4-.6-3.63-.49-5.79,1.2-10.88,4.93-15.29,3.59-4.24,8.25-6.69,13.73-7.15,7.27-.61,13.39,1.93,18.11,7.61.88,1.06,1.64,2.2,2.32,3.39.34.59.56.69,1.1.14,2.24-2.32,4.89-4,8.1-4.58,4.23-.76,8.13.15,11.54,2.81,3.11,2.43,4.83,5.68,5.33,9.58.22,1.72.2,1.72,1.98,1.75,7.92.12,14.55,5.82,15.62,13.67,1.13,8.31-3.71,15.39-11.79,17.65-1.43.4-2.91.52-4.39.52-11.13,0-22.25,0-33.38,0h0c-11.32,0-22.64.07-33.96-.03-5.76-.05-10.96-4.47-11.91-10.33-1.14-6.99,2.82-12.46,8.68-14.43Z"/>
</svg>